<svg width="32" height="32" viewBox="0 0 32 32" fill="none" xmlns="http://www.w3.org/2000/svg">
<path d="M16 29.812C13.2682 29.812 10.5978 29.0019 8.32646 27.4843C6.05509 25.9666 4.28477 23.8094 3.23937 21.2856C2.19397 18.7618 1.92045 15.9847 2.45339 13.3054C2.98633 10.6261 4.30179 8.16508 6.23344 6.23344C8.16508 4.30179 10.6261 2.98633 13.3054 2.45339C15.9847 1.92045 18.7618 2.19397 21.2856 3.23937C23.8094 4.28477 25.9666 6.05509 27.4843 8.32646C29.0019 10.5978 29.812 13.2682 29.812 16C29.8078 19.6619 28.3512 23.1725 25.7619 25.7619C23.1725 28.3512 19.6619 29.8078 16 29.812ZM16 4.68799C13.7627 4.68799 11.5756 5.35143 9.71538 6.59441C7.85514 7.83739 6.40525 9.60408 5.54907 11.6711C4.69289 13.7381 4.46888 16.0125 4.90535 18.2069C5.34183 20.4012 6.41919 22.4168 8.0012 23.9988C9.58321 25.5808 11.5988 26.6582 13.7931 27.0946C15.9874 27.5311 18.2619 27.3071 20.3289 26.4509C22.3959 25.5947 24.1626 24.1449 25.4056 22.2846C26.6486 20.4244 27.312 18.2373 27.312 16C27.3086 13.0009 26.1157 10.1257 23.995 8.005C21.8743 5.88434 18.9991 4.69144 16 4.68799Z" fill="black"/>
<path d="M16 17.25C15.6685 17.25 15.3505 17.1183 15.1161 16.8839C14.8817 16.6495 14.75 16.3316 14.75 16V8.44604C14.75 8.11452 14.8817 7.79658 15.1161 7.56216C15.3505 7.32774 15.6685 7.19604 16 7.19604C16.3315 7.19604 16.6495 7.32774 16.8839 7.56216C17.1183 7.79658 17.25 8.11452 17.25 8.44604V16C17.25 16.3316 17.1183 16.6495 16.8839 16.8839C16.6495 17.1183 16.3315 17.25 16 17.25Z" fill="black"/>
<path d="M21.375 22.6249C21.2108 22.6252 21.0482 22.593 20.8965 22.5302C20.7447 22.4673 20.6069 22.3752 20.491 22.2589L15.116 16.8839C14.8815 16.6495 14.7498 16.3315 14.7498 15.9999C14.7498 15.6684 14.8815 15.3504 15.116 15.1159C15.3504 14.8815 15.6684 14.7498 16 14.7498C16.3315 14.7498 16.6495 14.8815 16.884 15.1159L22.259 20.4909C22.4338 20.6657 22.5529 20.8885 22.6012 21.131C22.6494 21.3735 22.6247 21.6249 22.5301 21.8533C22.4354 22.0817 22.2752 22.277 22.0696 22.4143C21.864 22.5517 21.6222 22.625 21.375 22.6249Z" fill="black"/>
</svg>
