<svg width="32" height="32" viewBox="0 0 32 32" fill="none" xmlns="http://www.w3.org/2000/svg">
<path d="M10.625 17.3333C10.97 17.3333 11.25 17.0347 11.25 16.6667C11.25 16.2987 10.97 16 10.625 16C10.28 16 10 16.2987 10 16.6667C10 17.0347 10.28 17.3333 10.625 17.3333Z" fill="black"/>
<path d="M30.125 0H6.875C5.84106 0 5 0.897133 5 2V12H1.875C0.841063 12 0 12.8971 0 14V30C0 31.1029 0.841063 32 1.875 32H24.375C25.4089 32 26.25 31.1029 26.25 30V20H30.125C31.1589 20 32 19.1029 32 18V2C32 0.897133 31.1589 0 30.125 0ZM6.25 5.33333H30.75V8H6.25V5.33333ZM6.875 1.33333H30.125C30.4697 1.33333 30.75 1.63227 30.75 2V4H6.25V2C6.25 1.63227 6.53025 1.33333 6.875 1.33333ZM25 30C25 30.3677 24.7197 30.6667 24.375 30.6667H1.875C1.53025 30.6667 1.25 30.3677 1.25 30V14C1.25 13.6323 1.53025 13.3333 1.875 13.3333H24.375C24.7197 13.3333 25 13.6323 25 14V30ZM30.125 18.6667H26.25V14C26.25 12.8971 25.4089 12 24.375 12H6.25V9.33333H30.75V18C30.75 18.3677 30.4697 18.6667 30.125 18.6667Z" fill="black"/>
<path d="M21.875 16H15.625C15.2798 16 15 16.2985 15 16.6667V20.6667C15 21.0349 15.2798 21.3333 15.625 21.3333H21.875C22.2202 21.3333 22.5 21.0349 22.5 20.6667V16.6667C22.5 16.2985 22.2202 16 21.875 16ZM21.25 20H16.25V17.3333H21.25V20ZM6.875 26.6667H4.375C4.02981 26.6667 3.75 26.9651 3.75 27.3333C3.75 27.7015 4.02981 28 4.375 28H6.875C7.22019 28 7.5 27.7015 7.5 27.3333C7.5 26.9651 7.22019 26.6667 6.875 26.6667ZM11.875 26.6667H9.375C9.02981 26.6667 8.75 26.9651 8.75 27.3333C8.75 27.7015 9.02981 28 9.375 28H11.875C12.2202 28 12.5 27.7015 12.5 27.3333C12.5 26.9651 12.2202 26.6667 11.875 26.6667ZM16.875 26.6667H14.375C14.0298 26.6667 13.75 26.9651 13.75 27.3333C13.75 27.7015 14.0298 28 14.375 28H16.875C17.2202 28 17.5 27.7015 17.5 27.3333C17.5 26.9651 17.2202 26.6667 16.875 26.6667ZM21.875 26.6667H19.375C19.0298 26.6667 18.75 26.9651 18.75 27.3333C18.75 27.7015 19.0298 28 19.375 28H21.875C22.2202 28 22.5 27.7015 22.5 27.3333C22.5 26.9651 22.2202 26.6667 21.875 26.6667ZM4.375 17.3333H8.125C8.47019 17.3333 8.75 17.0349 8.75 16.6667C8.75 16.2985 8.47019 16 8.125 16H4.375C4.02981 16 3.75 16.2985 3.75 16.6667C3.75 17.0349 4.02981 17.3333 4.375 17.3333ZM4.375 20H10.625C10.9702 20 11.25 19.7015 11.25 19.3333C11.25 18.9651 10.9702 18.6667 10.625 18.6667H4.375C4.02981 18.6667 3.75 18.9651 3.75 19.3333C3.75 19.7015 4.02981 20 4.375 20Z" fill="black"/>
</svg>
