<svg width="32" height="32" viewBox="0 0 32 32" fill="none" xmlns="http://www.w3.org/2000/svg">
<path d="M23.495 7.48007C23.49 7.34007 23.42 7.21007 23.315 7.12007C21.265 5.43007 18.67 4.50007 16 4.50007C6.38002 4.43007 0.960021 15.9451 7.12002 23.3151C7.29502 23.5401 7.66002 23.5601 7.86002 23.3501L23.35 7.86007C23.45 7.76007 23.505 7.62507 23.495 7.48007ZM11.475 18.3151C10.71 16.3751 11.525 14.6501 13.055 13.3501L14.805 11.6001C15.105 11.2951 15.565 11.2351 15.945 11.4251C16.155 11.4851 17.02 12.4501 17.195 12.6001L11.48 18.3151H11.475ZM19.095 10.6951L17.9 11.8901L16.955 10.9451C17.58 10.5601 18.39 10.4601 19.095 10.6951ZM19.855 9.93507C19.47 9.74507 19.055 9.63007 18.625 9.59007C18.5 9.24007 18.77 8.59007 18.965 8.45007C19.415 7.97507 18.7 7.29007 18.245 7.75507C17.94 7.99007 17.465 8.98007 17.615 9.63007C17.03 9.74007 16.48 10.0001 16.02 10.3851C15.5 10.2351 14.94 10.3151 14.48 10.5951C14.37 10.5151 13.855 9.99007 13.73 9.95507L12.685 9.53007C12.08 9.28507 11.705 10.2051 12.305 10.4551L13.265 10.8501L13.72 11.2601L12.695 12.2851C12.575 12.1851 12.165 11.7051 12.02 11.6651L10.975 11.2401C10.37 10.9951 9.99002 11.9151 10.595 12.1651L11.545 12.5551L11.985 12.9951C11.635 13.3351 11.25 13.7251 10.995 14.1351C10.88 14.0501 10.35 13.4901 10.225 13.4601L9.18002 13.0351C8.57502 12.7901 8.19502 13.7101 8.80002 13.9601L9.76002 14.3501L10.515 15.0551C10.2656 15.7 10.1541 16.3901 10.1877 17.0807C10.2213 17.7714 10.3992 18.4474 10.71 19.0651L7.54002 22.2351C0.600021 12.4351 12.445 0.605073 22.24 7.55007L19.855 9.93507ZM24.88 8.68507C24.705 8.46007 24.34 8.44507 24.14 8.65007L21.09 11.7001L8.65002 24.1401C8.44502 24.3401 8.46002 24.7001 8.68502 24.8801C10.735 26.5701 13.33 27.5001 16 27.5001C25.62 27.5701 31.04 16.0551 24.88 8.68507ZM17.945 19.6451C17.3985 20.1935 16.703 20.5693 15.9447 20.7257C15.1865 20.8822 14.399 20.8124 13.68 20.5251L19.395 14.8101L20.39 15.8051C20.76 16.1751 20.78 16.8201 20.39 17.2001L17.94 19.6501L17.945 19.6451ZM21.05 15.0401L20.105 14.0951L21.3 12.9001C21.53 13.6101 21.44 14.3951 21.05 15.0351V15.0401ZM16 26.4951C13.75 26.4951 11.555 25.7701 9.76002 24.4451L12.94 21.2651C13.5543 21.5805 14.2288 21.7615 14.9185 21.796C15.6082 21.8305 16.2973 21.7177 16.94 21.4651L17.65 22.2251L18.04 23.1851C18.295 23.7901 19.21 23.4101 18.965 22.8051L18.54 21.7601C18.51 21.6301 17.95 21.1001 17.865 20.9901C18.27 20.7351 18.665 20.3501 19.005 20.0001L19.445 20.4401L19.835 21.3901C20.09 21.9951 21.005 21.6151 20.76 21.0101C20.695 20.8851 20.335 19.8751 20.225 19.8001L19.715 19.2901L20.74 18.2651L21.15 18.7151L21.545 19.6751C21.8 20.2801 22.715 19.9001 22.47 19.2951L22.045 18.2501C22.015 18.1251 21.485 17.6051 21.405 17.5001C21.69 17.0251 21.77 16.4551 21.615 15.9401C21.995 15.4751 22.245 14.9301 22.355 14.3601C23 14.5201 24.005 14.0451 24.245 13.7351C24.715 13.2801 24.03 12.5651 23.555 13.0101C23.4 13.2101 22.79 13.4751 22.41 13.3501C22.37 12.9301 22.255 12.5201 22.065 12.1301L24.455 9.74007C29.58 16.4951 24.5 26.5901 16.005 26.4801L16 26.4951Z" fill="black"/>
<path d="M14.6 24.345C13.775 24.18 12.98 23.885 12.245 23.47C12.1296 23.4052 11.9932 23.3888 11.8657 23.4245C11.7383 23.4601 11.6301 23.5448 11.565 23.66C11.015 24.53 13.9 25.225 14.5 25.335C15.09 25.34 15.185 24.46 14.6 24.345ZM17.69 24.36C17.2 24.45 16.695 24.5 16.195 24.5C15.92 24.5 15.695 24.725 15.695 25C15.755 25.89 17.295 25.37 17.875 25.345C18.515 25.22 18.335 24.245 17.69 24.36ZM19.63 24.075C19.495 23.935 19.27 23.89 19.085 23.965C19.055 23.98 19.025 23.995 19 24.015C18.735 24.17 18.705 24.575 18.92 24.785C18.945 24.805 18.97 24.825 19 24.845C19.025 24.865 19.055 24.88 19.085 24.89C19.115 24.905 19.145 24.91 19.175 24.92C19.645 25.03 19.975 24.41 19.63 24.075Z" fill="black"/>
<path d="M26.645 6.91999C18.285 -2.93001 1.99502 3.06999 2.00002 16C1.85502 23.52 8.48502 30.145 16 30C27.815 30.09 34.395 15.825 26.645 6.91999ZM16 29C9.03002 29.135 2.86502 22.98 3.00002 16C2.92002 5.02499 16.17 -1.08501 24.44 6.12499C33.57 13.89 28 29 16 29Z" fill="black"/>
</svg>
