<svg width="32" height="32" viewBox="0 0 32 32" fill="none" xmlns="http://www.w3.org/2000/svg">
<g clip-path="url(#clip0_1607_7)">
<path d="M30 8.5H23C22.6022 8.5 22.2206 8.65804 21.9393 8.93934C21.658 9.22064 21.5 9.60218 21.5 10V23C21.5 23.3978 21.658 23.7794 21.9393 24.0607C22.2206 24.342 22.6022 24.5 23 24.5H30C30.3978 24.5 30.7793 24.342 31.0606 24.0607C31.342 23.7794 31.5 23.3978 31.5 23V10C31.5 9.60218 31.342 9.22064 31.0606 8.93934C30.7793 8.65804 30.3978 8.5 30 8.5ZM30.5 23C30.5 23.1326 30.4473 23.2598 30.3535 23.3536C30.2598 23.4473 30.1326 23.5 30 23.5H23C22.8674 23.5 22.7402 23.4473 22.6464 23.3536C22.5527 23.2598 22.5 23.1326 22.5 23V22.5H30.5V23ZM30.5 21.5H22.5V11.5H30.5V21.5ZM30.5 10.5H22.5V10C22.5 9.86739 22.5527 9.74021 22.6464 9.64645C22.7402 9.55268 22.8674 9.5 23 9.5H30C30.1326 9.5 30.2598 9.55268 30.3535 9.64645C30.4473 9.74021 30.5 9.86739 30.5 10V10.5ZM15.5 19.9035V10.5C15.5 10.3674 15.4473 10.2402 15.3535 10.1464C15.2598 10.0527 15.1326 10 15 10H1.99999C1.86738 10 1.7402 10.0527 1.64643 10.1464C1.55267 10.2402 1.49999 10.3674 1.49999 10.5V19.9035L0.535487 22.314C0.505069 22.3899 0.49373 22.4721 0.502464 22.5534C0.511198 22.6347 0.539739 22.7126 0.585585 22.7803C0.631432 22.848 0.693184 22.9035 0.765432 22.9418C0.83768 22.9801 0.918217 23.0001 0.999987 23H16C16.0818 23.0001 16.1623 22.9801 16.2345 22.9418C16.3068 22.9035 16.3685 22.848 16.4144 22.7803C16.4602 22.7126 16.4888 22.6347 16.4975 22.5534C16.5062 22.4721 16.4949 22.3899 16.4645 22.314L15.5 19.9035ZM2.49999 11H14.5V19.5H2.49999V11ZM1.73849 22L2.33849 20.5H14.6615L15.2615 22H1.73849ZM24.5 3.5C24.4115 3.50002 24.3246 3.52352 24.2481 3.56812C24.1717 3.61271 24.1085 3.67679 24.0649 3.75382C24.0213 3.83085 23.999 3.91806 24.0001 4.00655C24.0013 4.09504 24.0259 4.18164 24.0715 4.2575L25.5715 6.7575C25.6159 6.83143 25.6788 6.89259 25.7538 6.93506C25.8289 6.97752 25.9137 6.99984 26 6.99984C26.0862 6.99984 26.171 6.97752 26.2461 6.93506C26.3212 6.89259 26.384 6.83143 26.4285 6.7575L27.9285 4.2575C27.9741 4.18164 27.9987 4.09504 27.9998 4.00655C28.001 3.91806 27.9787 3.83085 27.9351 3.75382C27.8915 3.67679 27.8283 3.61271 27.7518 3.56812C27.6754 3.52352 27.5885 3.50002 27.5 3.5H26.5V2.5C26.5 1.96957 26.2893 1.46086 25.9142 1.08579C25.5391 0.710714 25.0304 0.5 24.5 0.5H8.49999C7.96955 0.5 7.46085 0.710714 7.08577 1.08579C6.7107 1.46086 6.49999 1.96957 6.49999 2.5V8.5H7.49999V2.5C7.49999 2.23478 7.60534 1.98043 7.79288 1.79289C7.98042 1.60536 8.23477 1.5 8.49999 1.5H24.5C24.7652 1.5 25.0196 1.60536 25.2071 1.79289C25.3946 1.98043 25.5 2.23478 25.5 2.5V3.5H24.5ZM26.6165 4.5L26 5.528L25.3835 4.5H26.6165ZM25.5 29.5C25.5 29.7652 25.3946 30.0196 25.2071 30.2071C25.0196 30.3946 24.7652 30.5 24.5 30.5H8.49999C8.23477 30.5 7.98042 30.3946 7.79288 30.2071C7.60534 30.0196 7.49999 29.7652 7.49999 29.5V28H8.49999C8.58848 28 8.67539 27.9765 8.75184 27.9319C8.82828 27.8873 8.89151 27.8232 8.93509 27.7462C8.97866 27.6692 9.00101 27.5819 8.99985 27.4934C8.99869 27.405 8.97406 27.3184 8.92849 27.2425L7.42849 24.7425C7.38077 24.6729 7.31682 24.616 7.24216 24.5766C7.1675 24.5373 7.08438 24.5167 6.99999 24.5167C6.9156 24.5167 6.83247 24.5373 6.75781 24.5766C6.68315 24.616 6.6192 24.6729 6.57149 24.7425L5.07149 27.2425C5.02591 27.3184 5.00128 27.405 5.00012 27.4934C4.99897 27.5819 5.02131 27.6692 5.06489 27.7462C5.10846 27.8232 5.1717 27.8873 5.24814 27.9319C5.32458 27.9765 5.41149 28 5.49999 28H6.49999V29.5C6.49999 30.0304 6.7107 30.5391 7.08577 30.9142C7.46085 31.2893 7.96955 31.5 8.49999 31.5H24.5C25.0304 31.5 25.5391 31.2893 25.9142 30.9142C26.2893 30.5391 26.5 30.0304 26.5 29.5V26H25.5V29.5ZM6.38349 27L6.99999 25.972L7.61649 27H6.38349Z" fill="black"/>
<path d="M10.5 14.5H10.25V13.75C10.25 13.2859 10.0656 12.8408 9.73744 12.5126C9.40925 12.1844 8.96413 12 8.5 12C8.03587 12 7.59075 12.1844 7.26256 12.5126C6.93437 12.8408 6.75 13.2859 6.75 13.75V14.5H6.5C6.36739 14.5 6.24021 14.5527 6.14645 14.6464C6.05268 14.7402 6 14.8674 6 15V18C6 18.1326 6.05268 18.2598 6.14645 18.3536C6.24021 18.4473 6.36739 18.5 6.5 18.5H10.5C10.6326 18.5 10.7598 18.4473 10.8536 18.3536C10.9473 18.2598 11 18.1326 11 18V15C11 14.8674 10.9473 14.7402 10.8536 14.6464C10.7598 14.5527 10.6326 14.5 10.5 14.5ZM7.75 13.75C7.75 13.5511 7.82902 13.3603 7.96967 13.2197C8.11032 13.079 8.30109 13 8.5 13C8.69891 13 8.88968 13.079 9.03033 13.2197C9.17098 13.3603 9.25 13.5511 9.25 13.75V14.5H7.75V13.75ZM10 17.5H7V15.5H10V17.5ZM25 18.5C24.9989 18.7753 25.0735 19.0455 25.2157 19.2812C25.3579 19.5169 25.5622 19.7089 25.8063 19.8362C26.0504 19.9635 26.3247 20.0212 26.5994 20.0029C26.874 19.9847 27.1384 19.8912 27.3635 19.7327C27.5885 19.5743 27.7657 19.357 27.8755 19.1045C27.9853 18.8521 28.0235 18.5744 27.986 18.3017C27.9484 18.029 27.8366 17.7719 27.6627 17.5585C27.4888 17.3452 27.2595 17.1838 27 17.092V13H26V13.5H25V14.5H26V17.092C25.7085 17.195 25.456 17.3856 25.277 17.6376C25.098 17.8897 25.0013 18.1909 25 18.5ZM26.5 18C26.5989 18 26.6956 18.0293 26.7778 18.0843C26.86 18.1392 26.9241 18.2173 26.9619 18.3087C26.9998 18.4 27.0097 18.5006 26.9904 18.5975C26.9711 18.6945 26.9235 18.7836 26.8536 18.8536C26.7836 18.9235 26.6945 18.9711 26.5975 18.9904C26.5006 19.0097 26.4 18.9998 26.3087 18.9619C26.2173 18.9241 26.1392 18.86 26.0843 18.7778C26.0293 18.6956 26 18.5989 26 18.5C26 18.3674 26.0527 18.2402 26.1464 18.1464C26.2402 18.0527 26.3674 18 26.5 18Z" fill="black"/>
</g>
<defs>
<clipPath id="clip0_1607_7">
<rect width="32" height="32" fill="white"/>
</clipPath>
</defs>
</svg>
