<svg width="32" height="32" viewBox="0 0 32 32" fill="none" xmlns="http://www.w3.org/2000/svg">
<g clip-path="url(#clip0_1608_33)">
<path d="M26.3897 0.648926H5.61035C2.51676 0.648926 0 3.16577 0 6.25937V19.0761C0 22.1697 2.51676 24.6864 5.61035 24.6864L18.8457 24.6865L25.1814 31.0222C25.3383 31.1792 25.5382 31.2861 25.7559 31.3294C25.9736 31.3727 26.1992 31.3504 26.4042 31.2654C26.6092 31.1805 26.7845 31.0367 26.9078 30.8522C27.0311 30.6677 27.0969 30.4508 27.0969 30.2288V24.6421C29.858 24.2934 32 21.9302 32 19.0761V6.25937C32 3.16577 29.4832 0.648926 26.3897 0.648926ZM29.7559 19.0762C29.7559 20.9324 28.2458 22.4424 26.3897 22.4424H25.9748C25.3552 22.4424 24.8528 22.9449 24.8528 23.5645V27.5199L20.1039 22.771C19.9997 22.6668 19.876 22.5841 19.7399 22.5278C19.6037 22.4714 19.4578 22.4424 19.3105 22.4424H5.61035C3.75418 22.4424 2.24414 20.9324 2.24414 19.0762V6.25946C2.24414 4.40328 3.75418 2.89325 5.61035 2.89325H26.3897C28.2458 2.89325 29.7559 4.40328 29.7559 6.25946V19.0762Z" fill="black"/>
<path d="M24.2584 8.59424H7.74158C7.12192 8.59424 6.61951 9.09657 6.61951 9.71631C6.61951 10.336 7.12192 10.8384 7.74158 10.8384H24.2584C24.8781 10.8384 25.3805 10.336 25.3805 9.71631C25.3805 9.09657 24.8782 8.59424 24.2584 8.59424ZM24.2584 14.8778H7.74158C7.12192 14.8778 6.61951 15.3802 6.61951 15.9999C6.61951 16.6196 7.12192 17.122 7.74158 17.122H24.2584C24.8781 17.122 25.3805 16.6196 25.3805 15.9999C25.3805 15.3802 24.8782 14.8778 24.2584 14.8778Z" fill="black"/>
</g>
<defs>
<clipPath id="clip0_1608_33">
<rect width="32" height="32" fill="white"/>
</clipPath>
</defs>
</svg>
