<svg width="32" height="32" viewBox="0 0 32 32" fill="none" xmlns="http://www.w3.org/2000/svg">
<path d="M5.20252 15.0207C4.53544 15.6877 4.53544 16.7734 5.20252 17.447C5.86959 18.1141 6.95522 18.1141 7.62884 17.447C12.246 12.8298 19.7605 12.8298 24.3777 17.447C24.7112 17.7805 25.1494 17.9506 25.5876 17.9506C26.0257 17.9506 26.4639 17.7805 26.7974 17.447C27.4645 16.7799 27.4645 15.6943 26.7974 15.0207C20.8461 9.06277 11.1539 9.06277 5.20252 15.0207Z" fill="black"/>
<path d="M9.83283 19.6508C9.16575 20.3179 9.16575 21.4035 9.83283 22.0772C10.4999 22.7442 11.5855 22.7442 12.2591 22.0772C14.3192 20.0105 17.6808 20.0105 19.7409 22.0772C20.0744 22.4107 20.5126 22.5807 20.9507 22.5807C21.3889 22.5807 21.8271 22.4107 22.1606 22.0772C22.8277 21.4101 22.8277 20.3245 22.1606 19.6574C18.7664 16.2501 13.2336 16.2501 9.83283 19.6508Z" fill="black"/>
<path d="M16 28.0939C17.2605 28.0939 18.2824 27.0721 18.2824 25.8115C18.2824 24.5509 17.2605 23.5291 16 23.5291C14.7394 23.5291 13.7175 24.5509 13.7175 25.8115C13.7175 27.0721 14.7394 28.0939 16 28.0939Z" fill="black"/>
<path d="M31.4997 10.3119C22.952 1.77071 9.04803 1.77071 0.500306 10.3119C-0.166769 10.979 -0.166769 12.0646 0.500306 12.7382C1.16738 13.4053 2.25301 13.4053 2.92663 12.7382C10.1337 5.52464 21.8663 5.52464 29.0799 12.7382C29.4134 13.0718 29.8516 13.2418 30.2898 13.2418C30.728 13.2418 31.1662 13.0718 31.4997 12.7382C32.1668 12.0711 32.1668 10.9855 31.4997 10.3119Z" fill="black"/>
</svg>
